<svg width="143" height="36" viewBox="0 0 143 36" fill="none" xmlns="http://www.w3.org/2000/svg">
<path d="M-3.31849e-05 35.52L13.152 1.92002H19.584L32.688 35.52H25.296L18.528 17.424C18.336 16.912 18.096 16.256 17.808 15.456C17.552 14.656 17.28 13.808 16.992 12.912C16.704 12.016 16.432 11.168 16.176 10.368C15.92 9.53602 15.728 8.84802 15.6 8.30402L16.896 8.25602C16.704 8.99202 16.48 9.76002 16.224 10.56C16 11.328 15.76 12.128 15.504 12.96C15.248 13.76 14.976 14.544 14.688 15.312C14.4 16.08 14.128 16.832 13.872 17.568L7.10397 35.52H-3.31849e-05ZM6.09597 28.464L8.44797 22.656H23.856L26.256 28.464H6.09597ZM51.0858 36C49.9658 36 48.8778 35.84 47.8218 35.52C46.7658 35.2 45.8058 34.768 44.9418 34.224C44.0778 33.648 43.3578 33.008 42.7818 32.304C42.2058 31.568 41.8378 30.816 41.6778 30.048L43.2138 29.472L42.8778 35.424H36.4458V1.90735e-05H43.2618V16.08L41.9658 15.552C42.1578 14.784 42.5258 14.048 43.0698 13.344C43.6138 12.608 44.3018 11.968 45.1338 11.424C45.9658 10.848 46.8778 10.4 47.8698 10.08C48.8618 9.76002 49.8858 9.60002 50.9418 9.60002C53.1498 9.60002 55.1178 10.176 56.8458 11.328C58.5738 12.448 59.9338 14 60.9258 15.984C61.9498 17.968 62.4618 20.24 62.4618 22.8C62.4618 25.36 61.9658 27.632 60.9738 29.616C59.9818 31.6 58.6218 33.168 56.8938 34.32C55.1978 35.44 53.2618 36 51.0858 36ZM49.4538 30.192C50.7338 30.192 51.8378 29.888 52.7658 29.28C53.7258 28.64 54.4778 27.776 55.0218 26.688C55.5658 25.568 55.8378 24.272 55.8378 22.8C55.8378 21.36 55.5658 20.08 55.0218 18.96C54.5098 17.84 53.7738 16.976 52.8138 16.368C51.8538 15.76 50.7338 15.456 49.4538 15.456C48.1738 15.456 47.0538 15.76 46.0938 16.368C45.1338 16.976 44.3818 17.84 43.8378 18.96C43.2938 20.08 43.0218 21.36 43.0218 22.8C43.0218 24.272 43.2938 25.568 43.8378 26.688C44.3818 27.776 45.1338 28.64 46.0938 29.28C47.0538 29.888 48.1738 30.192 49.4538 30.192ZM79.4257 36C76.8337 36 74.5137 35.44 72.4657 34.32C70.4497 33.168 68.8497 31.6 67.6657 29.616C66.5137 27.632 65.9377 25.36 65.9377 22.8C65.9377 20.24 66.5137 17.984 67.6657 16.032C68.8497 14.048 70.4497 12.48 72.4657 11.328C74.5137 10.176 76.8337 9.60002 79.4257 9.60002C81.9857 9.60002 84.2737 10.176 86.2897 11.328C88.3377 12.48 89.9377 14.048 91.0897 16.032C92.2417 17.984 92.8177 20.24 92.8177 22.8C92.8177 25.36 92.2417 27.632 91.0897 29.616C89.9377 31.6 88.3377 33.168 86.2897 34.32C84.2737 35.44 81.9857 36 79.4257 36ZM79.4257 30.048C80.6737 30.048 81.7937 29.744 82.7857 29.136C83.7777 28.496 84.5457 27.632 85.0897 26.544C85.6657 25.424 85.9537 24.176 85.9537 22.8C85.9537 21.392 85.6657 20.144 85.0897 19.056C84.5457 17.936 83.7777 17.072 82.7857 16.464C81.7937 15.824 80.6737 15.504 79.4257 15.504C78.1457 15.504 77.0097 15.824 76.0177 16.464C75.0257 17.104 74.2417 17.968 73.6657 19.056C73.0897 20.144 72.8177 21.392 72.8497 22.8C72.8177 24.176 73.0897 25.424 73.6657 26.544C74.2417 27.632 75.0257 28.496 76.0177 29.136C77.0097 29.744 78.1457 30.048 79.4257 30.048ZM106.682 36C104.826 36 103.226 35.6 101.882 34.8C100.57 33.968 99.5458 32.8 98.8098 31.296C98.1058 29.76 97.7538 27.92 97.7538 25.776V10.128H104.57V24.672C104.57 25.824 104.762 26.832 105.146 27.696C105.53 28.528 106.074 29.168 106.778 29.616C107.482 30.064 108.346 30.288 109.37 30.288C110.106 30.288 110.794 30.176 111.434 29.952C112.074 29.696 112.618 29.344 113.066 28.896C113.514 28.448 113.866 27.92 114.122 27.312C114.378 26.704 114.506 26.048 114.506 25.344V10.128H121.322V35.52H114.842L114.602 30.288L115.85 29.712C115.466 30.896 114.826 31.968 113.93 32.928C113.034 33.888 111.962 34.64 110.714 35.184C109.466 35.728 108.122 36 106.682 36ZM130.628 35.52V3.69602H137.444V35.52H130.628ZM125.876 16.224V10.128H142.628V16.224H125.876Z" fill="black"/>
</svg>
