<svg width="178" height="39" viewBox="0 0 178 39" fill="none" xmlns="http://www.w3.org/2000/svg">
<path d="M-3.31849e-05 38.0156L13.152 4.41562H19.584L32.688 38.0156H25.296L18.528 19.9196C18.336 19.4076 18.096 18.7516 17.808 17.9516C17.552 17.1516 17.28 16.3036 16.992 15.4076C16.704 14.5116 16.432 13.6636 16.176 12.8636C15.92 12.0316 15.728 11.3436 15.6 10.7996L16.896 10.7516C16.704 11.4876 16.48 12.2556 16.224 13.0556C16 13.8236 15.76 14.6236 15.504 15.4556C15.248 16.2556 14.976 17.0396 14.688 17.8076C14.4 18.5756 14.128 19.3276 13.872 20.0636L7.10397 38.0156H-3.31849e-05ZM6.09597 30.9596L8.44797 25.1516H23.856L26.256 30.9596H6.09597ZM36.4458 38.0156V12.6236H43.0218L43.2618 20.7836L42.1098 19.1036C42.4938 17.7916 43.1178 16.6076 43.9818 15.5516C44.8458 14.4636 45.8538 13.6156 47.0058 13.0076C48.1898 12.3996 49.4218 12.0956 50.7018 12.0956C51.2458 12.0956 51.7738 12.1436 52.2858 12.2396C52.7978 12.3356 53.2298 12.4476 53.5818 12.5756L51.7578 20.0636C51.3738 19.8716 50.9098 19.7116 50.3658 19.5836C49.8218 19.4236 49.2618 19.3436 48.6858 19.3436C47.9178 19.3436 47.1978 19.4876 46.5258 19.7756C45.8858 20.0316 45.3258 20.4156 44.8458 20.9276C44.3658 21.4076 43.9818 21.9836 43.6938 22.6556C43.4378 23.3276 43.3098 24.0636 43.3098 24.8636V38.0156H36.4458ZM67.4546 38.4956C65.0226 38.4956 62.8466 37.9196 60.9266 36.7676C59.0066 35.6156 57.4866 34.0476 56.3666 32.0636C55.2786 30.0796 54.7346 27.8236 54.7346 25.2956C54.7346 22.7996 55.2786 20.5596 56.3666 18.5756C57.4866 16.5596 59.0066 14.9756 60.9266 13.8236C62.8466 12.6716 65.0226 12.0956 67.4546 12.0956C69.7266 12.0956 71.8066 12.5116 73.6946 13.3436C75.5826 14.1756 77.0546 15.3276 78.1106 16.7996L74.3666 21.3116C73.9186 20.7036 73.3586 20.1596 72.6866 19.6796C72.0146 19.1676 71.2786 18.7676 70.4786 18.4796C69.7106 18.1916 68.9106 18.0476 68.0786 18.0476C66.7666 18.0476 65.5986 18.3676 64.5746 19.0076C63.5826 19.6156 62.7986 20.4636 62.2226 21.5516C61.6466 22.6396 61.3586 23.8876 61.3586 25.2956C61.3586 26.6716 61.6466 27.9036 62.2226 28.9916C62.8306 30.0476 63.6466 30.9116 64.6706 31.5836C65.6946 32.2236 66.8466 32.5436 68.1266 32.5436C68.9586 32.5436 69.7426 32.4316 70.4786 32.2076C71.2146 31.9516 71.9026 31.5836 72.5426 31.1036C73.2146 30.6236 73.8226 30.0476 74.3666 29.3756L78.0626 33.8876C76.9746 35.2636 75.4706 36.3836 73.5506 37.2476C71.6306 38.0796 69.5986 38.4956 67.4546 38.4956ZM82.4302 38.0156V2.49562H89.1502V17.8076L87.8062 18.3836C88.1582 17.2316 88.7822 16.1916 89.6782 15.2636C90.6062 14.3036 91.7102 13.5356 92.9902 12.9596C94.2702 12.3836 95.6142 12.0956 97.0222 12.0956C98.9422 12.0956 100.542 12.4796 101.822 13.2476C103.134 14.0156 104.11 15.1836 104.75 16.7516C105.422 18.2876 105.758 20.1916 105.758 22.4636V38.0156H98.9422V22.9916C98.9422 21.8396 98.7822 20.8796 98.4622 20.1116C98.1422 19.3436 97.6462 18.7836 96.9742 18.4316C96.3342 18.0476 95.5342 17.8876 94.5742 17.9516C93.8062 17.9516 93.0862 18.0796 92.4142 18.3356C91.7742 18.5596 91.2142 18.8956 90.7342 19.3436C90.2862 19.7916 89.9182 20.3036 89.6302 20.8796C89.3742 21.4556 89.2462 22.0796 89.2462 22.7516V38.0156H85.8862C85.1502 38.0156 84.4942 38.0156 83.9182 38.0156C83.3422 38.0156 82.8462 38.0156 82.4302 38.0156ZM112.866 38.0156V12.6236H119.682V38.0156H112.866ZM116.226 7.39162C114.914 7.39162 113.89 7.07162 113.154 6.43162C112.418 5.79162 112.05 4.87962 112.05 3.69562C112.05 2.60762 112.418 1.72762 113.154 1.05562C113.922 0.351623 114.946 -0.000377655 116.226 -0.000377655C117.538 -0.000377655 118.562 0.335623 119.298 1.00762C120.034 1.64762 120.402 2.54362 120.402 3.69562C120.402 4.81562 120.018 5.71162 119.25 6.38362C118.514 7.05562 117.506 7.39162 116.226 7.39162ZM134.929 38.0156L124.273 12.6236H131.761L138.529 31.5836L136.945 31.8716L144.049 12.6236H151.345L140.161 38.0156H134.929ZM166.853 38.4956C164.101 38.4956 161.701 37.9356 159.653 36.8156C157.605 35.6956 156.005 34.1596 154.853 32.2076C153.701 30.2556 153.125 28.0156 153.125 25.4876C153.125 23.5356 153.445 21.7436 154.085 20.1116C154.725 18.4796 155.621 17.0716 156.773 15.8876C157.925 14.6716 159.285 13.7436 160.853 13.1036C162.453 12.4316 164.181 12.0956 166.037 12.0956C167.765 12.0956 169.365 12.4156 170.837 13.0556C172.309 13.6636 173.573 14.5436 174.629 15.6956C175.717 16.8156 176.549 18.1436 177.125 19.6796C177.701 21.2156 177.957 22.8956 177.893 24.7196L177.845 26.8316H157.445L156.341 22.6556H172.229L171.461 23.5196V22.4636C171.397 21.5996 171.109 20.8156 170.597 20.1116C170.117 19.4076 169.493 18.8636 168.725 18.4796C167.957 18.0956 167.093 17.9036 166.133 17.9036C164.725 17.9036 163.525 18.1756 162.533 18.7196C161.573 19.2636 160.837 20.0636 160.325 21.1196C159.813 22.1756 159.557 23.4556 159.557 24.9596C159.557 26.4956 159.877 27.8236 160.517 28.9436C161.189 30.0636 162.117 30.9436 163.301 31.5836C164.517 32.1916 165.941 32.4956 167.573 32.4956C168.693 32.4956 169.717 32.3196 170.645 31.9676C171.573 31.6156 172.565 31.0076 173.621 30.1436L176.885 34.7036C175.957 35.5356 174.933 36.2396 173.813 36.8156C172.693 37.3596 171.541 37.7756 170.357 38.0636C169.173 38.3516 168.005 38.4956 166.853 38.4956Z" fill="black"/>
</svg>
