<svg width="16" height="16" viewBox="0 0 16 16" fill="none" xmlns="http://www.w3.org/2000/svg">
<path d="M7.49919 15.2809C7.31086 15.0925 7.21224 14.8529 7.20333 14.5618C7.19511 14.2707 7.28517 14.031 7.47351 13.8427L12.5072 8.80898H1.02729C0.736222 8.80898 0.49207 8.71036 0.294831 8.51312C0.0982773 8.31657 0 8.07276 0 7.7817C0 7.49063 0.0982773 7.24648 0.294831 7.04924C0.49207 6.85269 0.736222 6.75441 1.02729 6.75441H12.5072L7.47351 1.7207C7.28517 1.53237 7.19511 1.29267 7.20333 1.0016C7.21224 0.71054 7.31086 0.470839 7.49919 0.282503C7.68753 0.0941675 7.92723 0 8.21829 0C8.50936 0 8.74906 0.0941675 8.93739 0.282503L15.7175 7.06259C15.8202 7.1482 15.8932 7.25504 15.9363 7.38311C15.9788 7.51186 16 7.64472 16 7.7817C16 7.91867 15.9788 8.04708 15.9363 8.16693C15.8932 8.28678 15.8202 8.39807 15.7175 8.5008L8.93739 15.2809C8.74906 15.4692 8.50936 15.5634 8.21829 15.5634C7.92723 15.5634 7.68753 15.4692 7.49919 15.2809Z" fill="black"/>
</svg>
