<svg width="24" height="22" viewBox="0 0 24 22" fill="none" xmlns="http://www.w3.org/2000/svg">
<path d="M4.74405 21.5C4.39301 21.5 4.18239 21.3863 4.11218 21.1589C4.04197 20.9386 4.11218 20.7005 4.3228 20.4447C4.46322 20.2812 4.62118 20.0822 4.7967 19.8477C4.97924 19.6203 5.15827 19.3751 5.33379 19.1122C5.51633 18.8563 5.67781 18.6041 5.81822 18.3553C5.86737 18.2558 5.8779 18.1706 5.84982 18.0995C5.82875 18.0213 5.76908 17.9574 5.67079 17.9076C4.62469 17.3675 3.712 16.6888 2.93269 15.8716C2.16041 15.0543 1.56013 14.1411 1.13187 13.132C0.710623 12.1228 0.5 11.064 0.5 9.95533C0.5 8.64772 0.794872 7.42538 1.38462 6.28832C1.97436 5.14416 2.79228 4.13858 3.83837 3.27157C4.89148 2.40457 6.1131 1.72589 7.50321 1.23553C8.90034 0.745178 10.3993 0.5 12 0.5C13.6078 0.5 15.1067 0.745178 16.4968 1.23553C17.8869 1.72589 19.105 2.40457 20.1511 3.27157C21.2042 4.13858 22.0256 5.14416 22.6154 6.28832C23.2051 7.42538 23.5 8.64772 23.5 9.95533C23.5 10.9929 23.3069 11.9843 22.9208 12.9294C22.5417 13.8746 22.0011 14.7416 21.299 15.5305C20.6039 16.3193 19.772 17.0051 18.8031 17.5878C17.8413 18.1706 16.7741 18.6218 15.6016 18.9416C14.4292 19.2614 13.1795 19.4213 11.8526 19.4213C11.6209 19.4213 11.3892 19.4142 11.1575 19.4C10.9258 19.3858 10.6976 19.3645 10.473 19.336C10.4028 19.336 10.3291 19.3431 10.2518 19.3574C10.1816 19.3716 10.0974 19.4071 9.99908 19.464C9.52167 19.7411 9.03022 20.0005 8.52473 20.2421C8.01923 20.4909 7.52778 20.7076 7.05037 20.8924C6.57998 21.0843 6.14469 21.2335 5.74451 21.3401C5.35134 21.4467 5.01786 21.5 4.74405 21.5Z" fill="white" stroke="black"/>
</svg>
