<svg width="18" height="17" viewBox="0 0 18 17" fill="none" xmlns="http://www.w3.org/2000/svg">
<path d="M0 5.47432C0 4.67069 0.126888 3.93656 0.380665 3.2719C0.640483 2.60121 1.00302 2.02115 1.46828 1.53172C1.93353 1.0423 2.47734 0.664653 3.0997 0.398792C3.7281 0.132931 4.40785 0 5.13897 0C5.97885 0 6.73112 0.18429 7.39577 0.55287C8.06042 0.92145 8.59517 1.41088 9 2.02115C9.41088 1.41088 9.94562 0.92145 10.6042 0.55287C11.2689 0.18429 12.0211 0 12.861 0C13.5982 0 14.2779 0.132931 14.9003 0.398792C15.5287 0.664653 16.0725 1.0423 16.5317 1.53172C16.997 2.02115 17.3565 2.60121 17.6103 3.2719C17.8701 3.93656 18 4.67069 18 5.47432C18 6.76133 17.6586 8.03625 16.9758 9.29909C16.2991 10.5559 15.3353 11.7825 14.0846 12.9789C12.8399 14.1692 11.3656 15.3082 9.66163 16.3958C9.56495 16.4562 9.45317 16.5106 9.32628 16.5589C9.20544 16.6133 9.09668 16.6405 9 16.6405C8.90937 16.6405 8.8006 16.6133 8.67372 16.5589C8.55287 16.5106 8.44411 16.4562 8.34743 16.3958C6.6435 15.3082 5.16616 14.1692 3.91541 12.9789C2.66465 11.7825 1.69789 10.5559 1.01511 9.29909C0.338369 8.03625 0 6.76133 0 5.47432ZM1.45921 5.47432C1.45921 6.3142 1.66163 7.16616 2.06647 8.03021C2.4713 8.88822 3.02115 9.73112 3.71601 10.5589C4.41088 11.3867 5.19637 12.1782 6.07251 12.9335C6.95468 13.6828 7.87009 14.3716 8.81873 15C8.91541 15.0725 8.97583 15.1088 9 15.1088C9.02417 15.1088 9.08761 15.0725 9.19033 15C10.139 14.3716 11.0514 13.6828 11.9275 12.9335C12.8097 12.1782 13.5952 11.3867 14.284 10.5589C14.9789 9.73112 15.5287 8.88822 15.9335 8.03021C16.3384 7.16616 16.5408 6.3142 16.5408 5.47432C16.5408 4.67069 16.3807 3.96979 16.0604 3.3716C15.7462 2.76737 15.3112 2.29909 14.7553 1.96677C14.2054 1.6284 13.5801 1.45921 12.8792 1.45921C12.3112 1.45921 11.8218 1.56193 11.4109 1.76737C11.006 1.96677 10.6556 2.22054 10.3595 2.5287C10.0695 2.83082 9.82175 3.12991 9.61631 3.42598C9.48338 3.60121 9.37462 3.72205 9.29003 3.78852C9.20544 3.85498 9.10876 3.88822 9 3.88822C8.89124 3.88822 8.79154 3.85801 8.70091 3.79758C8.61631 3.73112 8.51057 3.60725 8.38369 3.42598C8.19033 3.12387 7.94864 2.82175 7.65861 2.51964C7.36858 2.21752 7.01511 1.96677 6.59819 1.76737C6.18127 1.56193 5.68882 1.45921 5.12085 1.45921C4.41994 1.45921 3.79154 1.6284 3.23565 1.96677C2.6858 2.29909 2.25076 2.76737 1.93051 3.3716C1.61631 3.96979 1.45921 4.67069 1.45921 5.47432Z" fill="black"/>
</svg>
