<svg width="23" height="22" viewBox="0 0 23 22" fill="none" xmlns="http://www.w3.org/2000/svg">
<path d="M11.5 21.5613C10.7356 21.5613 10.0133 21.3054 9.333 20.7936C8.65271 20.2818 8.04885 19.558 7.52144 18.6221C6.99402 17.679 6.57743 16.564 6.27169 15.2772C5.97358 13.9904 5.82453 12.572 5.82453 11.0219C5.82453 9.47192 5.97358 8.05351 6.27169 6.7667C6.57743 5.47258 6.9902 4.35394 7.50997 3.41077C8.03739 2.4676 8.64124 1.74011 9.32154 1.22831C10.0095 0.716517 10.7356 0.460618 11.5 0.460618C12.2644 0.460618 12.9867 0.716517 13.667 1.22831C14.3473 1.74011 14.9511 2.4676 15.4786 3.41077C16.006 4.35394 16.4187 5.47258 16.7169 6.7667C17.015 8.05351 17.164 9.47192 17.164 11.0219C17.164 12.572 17.0111 13.9904 16.7054 15.2772C16.4073 16.564 15.9945 17.679 15.4671 18.6221C14.9473 19.558 14.3435 20.2818 13.6555 20.7936C12.9752 21.3054 12.2567 21.5613 11.5 21.5613ZM11.5 1.48056C10.9114 1.48056 10.3496 1.7328 9.81456 2.23729C9.2795 2.73446 8.80176 3.42173 8.38136 4.2991C7.96859 5.17647 7.63991 6.19275 7.39531 7.34796C7.15836 8.49585 7.03988 9.7205 7.03988 11.0219C7.03988 12.2941 7.15836 13.5005 7.39531 14.6411C7.63991 15.7817 7.96859 16.7943 8.38136 17.679C8.80176 18.5636 9.2795 19.2582 9.81456 19.7627C10.3496 20.2745 10.9114 20.5304 11.5 20.5304C12.0886 20.5304 12.6504 20.2745 13.1854 19.7627C13.7205 19.2582 14.1944 18.5636 14.6072 17.679C15.0199 16.7943 15.3448 15.7817 15.5818 14.6411C15.8264 13.5005 15.9487 12.2941 15.9487 11.0219C15.9487 9.7205 15.8264 8.49585 15.5818 7.34796C15.3448 6.19275 15.0199 5.17647 14.6072 4.2991C14.1944 3.42173 13.7205 2.73446 13.1854 2.23729C12.6504 1.7328 12.0886 1.48056 11.5 1.48056ZM10.9153 0.625125H12.0962V21.3529H10.9153V0.625125ZM11.5 15.3868C12.6542 15.3868 13.7473 15.4782 14.7792 15.661C15.8187 15.8365 16.7512 16.0887 17.5768 16.4177C18.4099 16.7468 19.0941 17.1306 19.6291 17.5693L18.7119 18.2931C18.1997 17.9129 17.5844 17.5912 16.8659 17.328C16.1474 17.0648 15.3372 16.8674 14.4352 16.7358C13.5332 16.5969 12.5548 16.5274 11.5 16.5274C10.4375 16.5274 9.4553 16.5969 8.55334 16.7358C7.65902 16.8674 6.84879 17.0648 6.12263 17.328C5.40412 17.5912 4.7888 17.9129 4.27667 18.2931L3.37089 17.5693C3.90595 17.1306 4.58624 16.7468 5.41176 16.4177C6.24493 16.0887 7.17747 15.8365 8.20937 15.661C9.24128 15.4782 10.3382 15.3868 11.5 15.3868ZM22.1515 10.4297V11.5593H0.836989V10.4297H22.1515ZM11.5 6.65703C10.3382 6.65703 9.24128 6.56929 8.20937 6.39382C7.17747 6.21834 6.24493 5.9661 5.41176 5.63709C4.58624 5.30808 3.90595 4.92423 3.37089 4.48554L4.27667 3.76171C4.7888 4.14191 5.40412 4.46361 6.12263 4.72682C6.84879 4.99003 7.65902 5.19109 8.55334 5.33001C9.4553 5.46162 10.4375 5.52742 11.5 5.52742C12.5548 5.52742 13.5332 5.46162 14.4352 5.33001C15.3372 5.19109 16.1474 4.99003 16.8659 4.72682C17.5844 4.46361 18.1997 4.14191 18.7119 3.76171L19.6291 4.48554C19.0941 4.92423 18.4099 5.30808 17.5768 5.63709C16.7512 5.9661 15.8187 6.21834 14.7792 6.39382C13.7473 6.56929 12.6542 6.65703 11.5 6.65703ZM11.5 22C9.9101 22 8.41957 21.7149 7.02841 21.1446C5.63726 20.5743 4.41426 19.7846 3.35942 18.7757C2.31223 17.7667 1.49053 16.6005 0.894317 15.2772C0.298106 13.9465 0 12.5208 0 11C0 9.47923 0.298106 8.05716 0.894317 6.7338C1.49053 5.40312 2.31223 4.2333 3.35942 3.22433C4.41426 2.20804 5.63726 1.41841 7.02841 0.855434C8.41957 0.285145 9.9101 0 11.5 0C13.0823 0 14.569 0.285145 15.9601 0.855434C17.3513 1.41841 18.5705 2.20804 19.6176 3.22433C20.6725 4.2333 21.498 5.40312 22.0942 6.7338C22.6981 8.05716 23 9.47923 23 11C23 12.5208 22.6981 13.9465 22.0942 15.2772C21.498 16.6005 20.6725 17.7667 19.6176 18.7757C18.5705 19.7846 17.3513 20.5743 15.9601 21.1446C14.569 21.7149 13.0823 22 11.5 22ZM11.5 20.8265C12.9217 20.8265 14.2517 20.5706 15.49 20.0588C16.7283 19.547 17.8175 18.8415 18.7577 17.9422C19.7055 17.0429 20.4432 16.001 20.9706 14.8166C21.5056 13.6321 21.7732 12.3599 21.7732 11C21.7732 9.64008 21.5056 8.3679 20.9706 7.18345C20.4432 5.99169 19.7055 4.94616 18.7577 4.04686C17.8175 3.14756 16.7283 2.44566 15.49 1.94118C14.2517 1.42938 12.9217 1.17348 11.5 1.17348C10.0783 1.17348 8.74826 1.42938 7.50997 1.94118C6.27169 2.44566 5.17863 3.14756 4.23081 4.04686C3.29063 4.94616 2.55301 5.99169 2.01795 7.18345C1.49053 8.3679 1.22682 9.64008 1.22682 11C1.22682 12.3599 1.49053 13.6321 2.01795 14.8166C2.55301 16.001 3.29063 17.0429 4.23081 17.9422C5.17863 18.8415 6.27169 19.547 7.50997 20.0588C8.74826 20.5706 10.0783 20.8265 11.5 20.8265Z" fill="black"/>
</svg>
