<svg width="17" height="29" viewBox="0 0 17 29" fill="none" xmlns="http://www.w3.org/2000/svg">
<path d="M3.63188 28.7338C2.50507 28.7338 1.61572 28.4218 0.963846 27.7979C0.321282 27.1739 0 26.3125 0 25.2136V3.52013C0 2.43057 0.321282 1.57382 0.963846 0.949877C1.61572 0.316626 2.50507 0 3.63188 0H13.3681C14.4949 0 15.3796 0.316626 16.0222 0.949877C16.6741 1.57382 17 2.43057 17 3.52013V25.2136C17 26.3125 16.6741 27.1739 16.0222 27.7979C15.3796 28.4218 14.4949 28.7338 13.3681 28.7338H3.63188ZM3.82744 27.0296H13.1726C13.871 27.0296 14.3972 26.8573 14.751 26.5127C15.1049 26.1682 15.2818 25.656 15.2818 24.9762V3.77157C15.2818 3.08244 15.1049 2.57025 14.751 2.235C14.3972 1.89044 13.871 1.71816 13.1726 1.71816H3.82744C3.12901 1.71816 2.60285 1.89044 2.24897 2.235C1.8951 2.57025 1.71816 3.08244 1.71816 3.77157V24.9762C1.71816 25.656 1.8951 26.1682 2.24897 26.5127C2.60285 26.8573 3.12901 27.0296 3.82744 27.0296ZM5.61545 26.0518C5.45714 26.0518 5.3221 25.9959 5.21035 25.8841C5.10792 25.7817 5.0567 25.6513 5.0567 25.493C5.0567 25.3347 5.10792 25.2043 5.21035 25.1019C5.3221 24.9995 5.45714 24.9482 5.61545 24.9482H11.4125C11.5615 24.9482 11.6872 24.9995 11.7896 25.1019C11.8921 25.2043 11.9433 25.3347 11.9433 25.493C11.9433 25.6513 11.8921 25.7817 11.7896 25.8841C11.6872 25.9959 11.5615 26.0518 11.4125 26.0518H5.61545ZM6.87264 4.27445C6.63051 4.27445 6.43029 4.19529 6.27198 4.03698C6.11367 3.87866 6.03451 3.67844 6.03451 3.43632C6.03451 3.21282 6.11367 3.02191 6.27198 2.8636C6.43029 2.70529 6.63051 2.62613 6.87264 2.62613H10.1413C10.3648 2.62613 10.5557 2.70529 10.7141 2.8636C10.8817 3.02191 10.9655 3.21282 10.9655 3.43632C10.9655 3.67844 10.8817 3.87866 10.7141 4.03698C10.5557 4.19529 10.3648 4.27445 10.1413 4.27445H6.87264Z" fill="#2AA693"/>
</svg>
