<svg width="28" height="28" viewBox="0 0 28 28" fill="none" xmlns="http://www.w3.org/2000/svg">
<path d="M14 17.9041C13.7167 17.9041 13.4793 17.8081 13.288 17.6161C13.096 17.4248 13 17.1874 13 16.9041V6.7291L12.1 7.6291C11.9167 7.81244 11.6877 7.9041 11.413 7.9041C11.1377 7.9041 10.9 7.8041 10.7 7.6041C10.5167 7.4041 10.425 7.16644 10.425 6.8911C10.425 6.61644 10.5167 6.38744 10.7 6.2041L13.3 3.6041C13.3833 3.52077 13.4877 3.4541 13.613 3.4041C13.7377 3.3541 13.8667 3.3291 14 3.3291C14.1333 3.3291 14.2627 3.3541 14.388 3.4041C14.5127 3.4541 14.6167 3.52077 14.7 3.6041L17.3 6.2041C17.5 6.4041 17.6 6.64577 17.6 6.9291C17.6 7.21244 17.5 7.44577 17.3 7.6291C17.1 7.81244 16.8627 7.9041 16.588 7.9041C16.3127 7.9041 16.0833 7.81244 15.9 7.6291L15 6.7291V16.9041C15 17.1874 14.9043 17.4248 14.713 17.6161C14.521 17.8081 14.2833 17.9041 14 17.9041ZM8 24.9041C7.45 24.9041 6.97933 24.7084 6.588 24.3171C6.196 23.9251 6 23.4541 6 22.9041V11.9041C6 11.3541 6.196 10.8831 6.588 10.4911C6.97933 10.0998 7.45 9.9041 8 9.9041H10C10.2833 9.9041 10.521 9.99977 10.713 10.1911C10.9043 10.3831 11 10.6208 11 10.9041C11 11.1874 10.9043 11.4248 10.713 11.6161C10.521 11.8081 10.2833 11.9041 10 11.9041H8V22.9041H20V11.9041H18C17.7167 11.9041 17.4793 11.8081 17.288 11.6161C17.096 11.4248 17 11.1874 17 10.9041C17 10.6208 17.096 10.3831 17.288 10.1911C17.4793 9.99977 17.7167 9.9041 18 9.9041H20C20.55 9.9041 21.021 10.0998 21.413 10.4911C21.8043 10.8831 22 11.3541 22 11.9041V22.9041C22 23.4541 21.8043 23.9251 21.413 24.3171C21.021 24.7084 20.55 24.9041 20 24.9041H8Z" fill="black"/>
</svg>
