<svg width="17" height="15" viewBox="0 0 17 15" fill="none" xmlns="http://www.w3.org/2000/svg">
<path d="M8.35645 7.50195C7.93262 7.50195 7.7207 7.30827 7.7207 6.9209C7.7207 6.90723 7.7207 6.89583 7.7207 6.88672C7.7207 6.87305 7.7207 6.85938 7.7207 6.8457C7.7207 6.53581 7.79818 6.28288 7.95312 6.08691C8.10807 5.89095 8.30632 5.71094 8.54785 5.54688C8.83496 5.34635 9.04915 5.17773 9.19043 5.04102C9.33626 4.9043 9.40918 4.72656 9.40918 4.50781C9.40918 4.27995 9.32487 4.0931 9.15625 3.94727C8.98763 3.80143 8.76432 3.72852 8.48633 3.72852C8.34961 3.72852 8.22201 3.7513 8.10352 3.79688C7.98958 3.83789 7.88477 3.90169 7.78906 3.98828C7.69336 4.07031 7.60677 4.17285 7.5293 4.2959L7.41992 4.43262C7.35612 4.52376 7.27865 4.5944 7.1875 4.64453C7.10091 4.69466 6.99837 4.71973 6.87988 4.71973C6.74316 4.71973 6.62012 4.67415 6.51074 4.58301C6.40592 4.4873 6.35352 4.35742 6.35352 4.19336C6.35352 4.12956 6.35807 4.07031 6.36719 4.01562C6.38086 3.95638 6.39681 3.89941 6.41504 3.84473C6.51986 3.52572 6.75911 3.25228 7.13281 3.02441C7.51107 2.79655 7.98958 2.68262 8.56836 2.68262C8.96484 2.68262 9.32943 2.75098 9.66211 2.8877C9.99935 3.02441 10.2682 3.22493 10.4688 3.48926C10.6738 3.74902 10.7764 4.06576 10.7764 4.43945C10.7764 4.83594 10.6761 5.15039 10.4756 5.38281C10.2751 5.61068 10.0085 5.83398 9.67578 6.05273C9.45247 6.19857 9.28158 6.33757 9.16309 6.46973C9.04915 6.59733 8.98763 6.75 8.97852 6.92773C8.97852 6.94141 8.97624 6.95508 8.97168 6.96875C8.97168 6.98242 8.97168 6.99609 8.97168 7.00977C8.96257 7.14648 8.90332 7.2627 8.79395 7.3584C8.68457 7.4541 8.53874 7.50195 8.35645 7.50195ZM8.33594 9.55957C8.1263 9.55957 7.94401 9.48893 7.78906 9.34766C7.63411 9.20638 7.55664 9.03092 7.55664 8.82129C7.55664 8.61165 7.63184 8.43848 7.78223 8.30176C7.93717 8.16048 8.12174 8.08984 8.33594 8.08984C8.55469 8.08984 8.74154 8.16048 8.89648 8.30176C9.05143 8.43848 9.12891 8.61165 9.12891 8.82129C9.12891 9.03548 9.05143 9.21322 8.89648 9.35449C8.74154 9.49121 8.55469 9.55957 8.33594 9.55957ZM5.23926 14.6865C4.96582 14.6865 4.75163 14.5977 4.59668 14.4199C4.44629 14.2422 4.37109 14.0007 4.37109 13.6953V12.0137H4.00195C3.34115 12.0137 2.77376 11.8861 2.2998 11.6309C1.8304 11.3757 1.4681 11.0111 1.21289 10.5371C0.96224 10.0586 0.836914 9.47982 0.836914 8.80078V3.49609C0.836914 2.81706 0.96224 2.24056 1.21289 1.7666C1.46354 1.28809 1.82585 0.921224 2.2998 0.666016C2.77832 0.410807 3.36165 0.283203 4.0498 0.283203H12.9434C13.627 0.283203 14.208 0.410807 14.6865 0.666016C15.165 0.921224 15.5296 1.28809 15.7803 1.7666C16.0309 2.24056 16.1562 2.81706 16.1562 3.49609V8.80078C16.1562 9.47982 16.0309 10.0586 15.7803 10.5371C15.5296 11.0111 15.165 11.3757 14.6865 11.6309C14.208 11.8861 13.627 12.0137 12.9434 12.0137H8.71875L6.38086 14.085C6.14844 14.29 5.94792 14.4404 5.7793 14.5361C5.61068 14.6364 5.43066 14.6865 5.23926 14.6865ZM5.57422 13.1758L7.74121 11.0293C7.88704 10.8835 8.02148 10.7878 8.14453 10.7422C8.27214 10.6921 8.44076 10.667 8.65039 10.667H12.9023C13.5495 10.667 14.028 10.5075 14.3379 10.1885C14.6523 9.86491 14.8096 9.38639 14.8096 8.75293V3.53711C14.8096 2.9082 14.6523 2.43424 14.3379 2.11523C14.028 1.79167 13.5495 1.62988 12.9023 1.62988H4.08398C3.44141 1.62988 2.96289 1.79167 2.64844 2.11523C2.33854 2.43424 2.18359 2.9082 2.18359 3.53711V8.75293C2.18359 9.38639 2.33854 9.86491 2.64844 10.1885C2.96289 10.5075 3.44141 10.667 4.08398 10.667H5.02051C5.21191 10.667 5.35091 10.7103 5.4375 10.7969C5.52865 10.8789 5.57422 11.0225 5.57422 11.2275V13.1758Z" fill="#1F2937"/>
</svg>
