<svg width="263" height="39" viewBox="0 0 263 39" fill="none" xmlns="http://www.w3.org/2000/svg">
<path d="M9.79673 38.0344V10.9014H1.56239e-05V4.41824H27.085V10.9014H17.0002V38.0344H9.79673ZM39.3441 38.5146C36.5907 38.5146 34.1896 37.9544 32.1406 36.8338C30.0916 35.7133 28.4908 34.1765 27.3383 32.2236C26.1857 30.2707 25.6095 28.0296 25.6095 25.5004C25.6095 23.5474 25.9296 21.7546 26.5699 20.1218C27.2102 18.489 28.1067 17.0803 29.2592 15.8958C30.4118 14.6792 31.7724 13.7507 33.3412 13.1104C34.9419 12.4381 36.6708 12.1019 38.5277 12.1019C40.2565 12.1019 41.8573 12.4221 43.33 13.0624C44.8027 13.6707 46.0673 14.5511 47.1238 15.7037C48.2123 16.8242 49.0447 18.1528 49.621 19.6896C50.1973 21.2263 50.4534 22.9071 50.3894 24.732L50.3413 26.845H29.9315L28.827 22.667H44.7226L43.9543 23.5314V22.4749C43.8902 21.6105 43.6021 20.8261 43.0899 20.1218C42.6096 19.4174 41.9853 18.8732 41.217 18.489C40.4486 18.1048 39.5842 17.9127 38.6237 17.9127C37.215 17.9127 36.0145 18.1849 35.022 18.7291C34.0615 19.2734 33.3252 20.0738 32.8129 21.1303C32.3007 22.1868 32.0445 23.4674 32.0445 24.9721C32.0445 26.5089 32.3647 27.8375 33.005 28.958C33.6773 30.0786 34.6058 30.959 35.7904 31.5993C37.0069 32.2076 38.4316 32.5117 40.0644 32.5117C41.1849 32.5117 42.2094 32.3357 43.1379 31.9835C44.0663 31.6313 45.0588 31.023 46.1153 30.1586L49.3809 34.7208C48.4524 35.5532 47.4279 36.2575 46.3074 36.8338C45.1869 37.3781 44.0343 37.7943 42.8497 38.0824C41.6652 38.3706 40.4966 38.5146 39.3441 38.5146ZM64.9374 38.5146C62.8244 38.5146 60.9194 37.9384 59.2226 36.7858C57.5258 35.6332 56.1812 34.0645 55.1887 32.0795C54.1962 30.0946 53.7 27.8215 53.7 25.2603C53.7 22.699 54.1962 20.4419 55.1887 18.489C56.2132 16.504 57.5898 14.9513 59.3187 13.8308C61.0475 12.6782 63.0164 12.1019 65.2255 12.1019C66.4741 12.1019 67.6107 12.294 68.6351 12.6782C69.6917 13.0304 70.6041 13.5266 71.3725 14.1669C72.1728 14.8072 72.8452 15.5436 73.3894 16.376C73.9337 17.2084 74.3179 18.1048 74.542 19.0653L73.1013 18.8252V12.6302H79.8725V38.0344H73.0052V31.9355L74.542 31.7914C74.2859 32.6878 73.8697 33.5362 73.2934 34.3366C72.7171 35.137 71.9968 35.8574 71.1323 36.4977C70.2999 37.106 69.3555 37.6022 68.299 37.9864C67.2425 38.3385 66.1219 38.5146 64.9374 38.5146ZM66.8103 32.6078C68.0909 32.6078 69.2114 32.3036 70.1719 31.6954C71.1323 31.0871 71.8687 30.2387 72.3809 29.1501C72.9252 28.0296 73.1973 26.733 73.1973 25.2603C73.1973 23.8196 72.9252 22.555 72.3809 21.4664C71.8687 20.3779 71.1323 19.5295 70.1719 18.9212C69.2114 18.2809 68.0909 17.9607 66.8103 17.9607C65.5617 17.9607 64.4571 18.2809 63.4967 18.9212C62.5682 19.5295 61.8319 20.3779 61.2876 21.4664C60.7433 22.555 60.4712 23.8196 60.4712 25.2603C60.4712 26.733 60.7433 28.0296 61.2876 29.1501C61.8319 30.2387 62.5682 31.0871 63.4967 31.6954C64.4571 32.3036 65.5617 32.6078 66.8103 32.6078ZM86.6614 38.0344V12.6302H93.2406L93.3847 17.4805L92.3762 17.6726C92.7284 16.8402 93.1926 16.0878 93.7689 15.4155C94.3451 14.7432 95.0175 14.1669 95.7858 13.6867C96.5862 13.2065 97.4186 12.8383 98.283 12.5822C99.1474 12.294 100.012 12.15 100.876 12.15C102.189 12.15 103.373 12.3581 104.43 12.7743C105.486 13.1905 106.383 13.8468 107.119 14.7432C107.856 15.6076 108.432 16.7602 108.848 18.2009L107.792 18.1048L108.128 17.3364C108.544 16.5681 109.072 15.8797 109.713 15.2715C110.353 14.6311 111.073 14.0869 111.874 13.6387C112.674 13.1584 113.506 12.7903 114.371 12.5341C115.235 12.278 116.084 12.15 116.916 12.15C118.901 12.15 120.55 12.5501 121.862 13.3505C123.175 14.1189 124.151 15.2875 124.792 16.8562C125.464 18.425 125.8 20.3459 125.8 22.619V38.0344H118.981V23.0992C118.981 21.9467 118.821 21.0022 118.501 20.2659C118.181 19.5295 117.716 18.9852 117.108 18.6331C116.5 18.2489 115.715 18.0568 114.755 18.0568C114.019 18.0568 113.33 18.1849 112.69 18.441C112.082 18.6651 111.537 19.0012 111.057 19.4495C110.609 19.8657 110.257 20.3619 110.001 20.9382C109.745 21.5145 109.616 22.1548 109.616 22.8591V38.0344H102.797V23.0512C102.797 21.9947 102.621 21.0983 102.269 20.3619C101.949 19.5935 101.485 19.0173 100.876 18.6331C100.268 18.2489 99.5156 18.0568 98.6192 18.0568C97.8828 18.0568 97.1945 18.1849 96.5542 18.441C95.9459 18.6651 95.4176 19.0012 94.9694 19.4495C94.5212 19.8657 94.153 20.3619 93.8649 20.9382C93.6088 21.5145 93.4807 22.1388 93.4807 22.8111V38.0344H86.6614ZM147.98 38.0344V4.41824H154.559L166.805 24.3478L162.483 24.2998L174.873 4.41824H181.164V38.0344H174.105V26.5089C174.105 23.6275 174.169 21.0342 174.297 18.7291C174.457 16.424 174.713 14.1349 175.065 11.8618L175.93 14.1189L166.085 29.3902H162.915L153.263 14.2149L154.079 11.8618C154.431 14.0068 154.671 16.2159 154.799 18.489C154.96 20.7301 155.04 23.4034 155.04 26.5089V38.0344H147.98ZM189.522 38.0344V12.6302H196.342V38.0344H189.522ZM192.884 7.39567C191.571 7.39567 190.547 7.07551 189.811 6.43521C189.074 5.7949 188.706 4.88246 188.706 3.69789C188.706 2.60937 189.074 1.72894 189.811 1.05662C190.579 0.35228 191.603 0.000110679 192.884 0.000110679C194.197 0.000110679 195.221 0.336273 195.957 1.0086C196.694 1.6489 197.062 2.54534 197.062 3.69789C197.062 4.81843 196.678 5.71486 195.909 6.38718C195.173 7.05951 194.165 7.39567 192.884 7.39567ZM203.625 38.0344V12.6302H210.204L210.444 20.7941L209.292 19.1133C209.676 17.8007 210.3 16.6161 211.165 15.5596C212.029 14.4711 213.038 13.6227 214.19 13.0144C215.375 12.4061 216.607 12.1019 217.888 12.1019C218.432 12.1019 218.96 12.15 219.473 12.246C219.985 12.342 220.417 12.4541 220.769 12.5822L218.944 20.0738C218.56 19.8817 218.096 19.7216 217.552 19.5935C217.007 19.4335 216.447 19.3534 215.871 19.3534C215.103 19.3534 214.382 19.4975 213.71 19.7856C213.07 20.0417 212.509 20.4259 212.029 20.9382C211.549 21.4184 211.165 21.9947 210.877 22.667C210.62 23.3393 210.492 24.0757 210.492 24.8761V38.0344H203.625ZM233.112 38.5146C230.999 38.5146 229.094 37.9384 227.397 36.7858C225.7 35.6332 224.356 34.0645 223.363 32.0795C222.371 30.0946 221.875 27.8215 221.875 25.2603C221.875 22.699 222.371 20.4419 223.363 18.489C224.388 16.504 225.764 14.9513 227.493 13.8308C229.222 12.6782 231.191 12.1019 233.4 12.1019C234.649 12.1019 235.785 12.294 236.81 12.6782C237.866 13.0304 238.779 13.5266 239.547 14.1669C240.347 14.8072 241.02 15.5436 241.564 16.376C242.108 17.2084 242.492 18.1048 242.717 19.0653L241.276 18.8252V12.6302H248.047V38.0344H241.18V31.9355L242.717 31.7914C242.46 32.6878 242.044 33.5362 241.468 34.3366C240.892 35.137 240.171 35.8574 239.307 36.4977C238.475 37.106 237.53 37.6022 236.474 37.9864C235.417 38.3385 234.297 38.5146 233.112 38.5146ZM234.985 32.6078C236.266 32.6078 237.386 32.3036 238.347 31.6954C239.307 31.0871 240.043 30.2387 240.556 29.1501C241.1 28.0296 241.372 26.733 241.372 25.2603C241.372 23.8196 241.1 22.555 240.556 21.4664C240.043 20.3779 239.307 19.5295 238.347 18.9212C237.386 18.2809 236.266 17.9607 234.985 17.9607C233.736 17.9607 232.632 18.2809 231.671 18.9212C230.743 19.5295 230.006 20.3779 229.462 21.4664C228.918 22.555 228.646 23.8196 228.646 25.2603C228.646 26.733 228.918 28.0296 229.462 29.1501C230.006 30.2387 230.743 31.0871 231.671 31.6954C232.632 32.3036 233.736 32.6078 234.985 32.6078ZM255.46 38.0344V12.6302H262.28V38.0344H255.46ZM258.822 7.39567C257.509 7.39567 256.485 7.07551 255.748 6.43521C255.012 5.7949 254.644 4.88246 254.644 3.69789C254.644 2.60937 255.012 1.72894 255.748 1.05662C256.517 0.35228 257.541 0.000110679 258.822 0.000110679C260.135 0.000110679 261.159 0.336273 261.895 1.0086C262.632 1.6489 263 2.54534 263 3.69789C263 4.81843 262.616 5.71486 261.847 6.38718C261.111 7.05951 260.103 7.39567 258.822 7.39567Z" fill="black"/>
</svg>
