<svg width="48" height="49" viewBox="0 0 48 49" fill="none" xmlns="http://www.w3.org/2000/svg">
<circle cx="24" cy="24.2139" r="23.75" fill="white" stroke="#9CA3AF" stroke-width="0.5"/>
<path d="M24.7121 37.1514C23.8006 37.1514 22.9393 36.8324 22.1281 36.1943C21.3169 35.5563 20.5969 34.654 19.968 33.4873C19.339 32.3115 18.8423 30.9215 18.4777 29.3174C18.1223 27.7132 17.9445 25.945 17.9445 24.0127C17.9445 22.0804 18.1223 20.3122 18.4777 18.708C18.8423 17.0947 19.3345 15.7002 19.9543 14.5244C20.5832 13.3486 21.3032 12.4417 22.1144 11.8037C22.9348 11.1657 23.8006 10.8467 24.7121 10.8467C25.6236 10.8467 26.4849 11.1657 27.2961 11.8037C28.1073 12.4417 28.8273 13.3486 29.4562 14.5244C30.0851 15.7002 30.5773 17.0947 30.9328 18.708C31.2883 20.3122 31.466 22.0804 31.466 24.0127C31.466 25.945 31.2837 27.7132 30.9191 29.3174C30.5637 30.9215 30.0715 32.3115 29.4426 33.4873C28.8228 34.654 28.1027 35.5563 27.2824 36.1943C26.4712 36.8324 25.6144 37.1514 24.7121 37.1514ZM24.7121 12.1182C24.0103 12.1182 23.3404 12.4326 22.7023 13.0615C22.0643 13.6813 21.4946 14.5381 20.9933 15.6318C20.5012 16.7256 20.1092 17.9925 19.8176 19.4326C19.535 20.8636 19.3937 22.3903 19.3937 24.0127C19.3937 25.5986 19.535 27.1025 19.8176 28.5244C20.1092 29.9463 20.5012 31.2087 20.9933 32.3115C21.4946 33.4144 22.0643 34.2803 22.7023 34.9092C23.3404 35.5472 24.0103 35.8662 24.7121 35.8662C25.4139 35.8662 26.0838 35.5472 26.7219 34.9092C27.3599 34.2803 27.925 33.4144 28.4172 32.3115C28.9094 31.2087 29.2967 29.9463 29.5793 28.5244C29.871 27.1025 30.0168 25.5986 30.0168 24.0127C30.0168 22.3903 29.871 20.8636 29.5793 19.4326C29.2967 17.9925 28.9094 16.7256 28.4172 15.6318C27.925 14.5381 27.3599 13.6813 26.7219 13.0615C26.0838 12.4326 25.4139 12.1182 24.7121 12.1182ZM24.0148 11.0518H25.423V36.8916H24.0148V11.0518ZM24.7121 29.4541C26.0884 29.4541 27.3918 29.568 28.6223 29.7959C29.8618 30.0146 30.9738 30.3291 31.9582 30.7393C32.9517 31.1494 33.7674 31.6279 34.4055 32.1748L33.3117 33.0771C32.701 32.6032 31.9673 32.2021 31.1105 31.874C30.2538 31.5459 29.2876 31.2998 28.2121 31.1357C27.1366 30.9626 25.9699 30.876 24.7121 30.876C23.4452 30.876 22.2739 30.9626 21.1984 31.1357C20.132 31.2998 19.1659 31.5459 18.3 31.874C17.4432 32.2021 16.7095 32.6032 16.0988 33.0771L15.0187 32.1748C15.6568 31.6279 16.468 31.1494 17.4523 30.7393C18.4458 30.3291 19.5578 30.0146 20.7883 29.7959C22.0187 29.568 23.3267 29.4541 24.7121 29.4541ZM37.4133 23.2744V24.6826H11.9973V23.2744H37.4133ZM24.7121 18.5713C23.3267 18.5713 22.0187 18.4619 20.7883 18.2432C19.5578 18.0244 18.4458 17.71 17.4523 17.2998C16.468 16.8896 15.6568 16.4111 15.0187 15.8643L16.0988 14.9619C16.7095 15.4359 17.4432 15.8369 18.3 16.165C19.1659 16.4932 20.132 16.7438 21.1984 16.917C22.2739 17.0811 23.4452 17.1631 24.7121 17.1631C25.9699 17.1631 27.1366 17.0811 28.2121 16.917C29.2876 16.7438 30.2538 16.4932 31.1105 16.165C31.9673 15.8369 32.701 15.4359 33.3117 14.9619L34.4055 15.8643C33.7674 16.4111 32.9517 16.8896 31.9582 17.2998C30.9738 17.71 29.8618 18.0244 28.6223 18.2432C27.3918 18.4619 26.0884 18.5713 24.7121 18.5713ZM24.7121 37.6982C22.8163 37.6982 21.0389 37.3428 19.3801 36.6318C17.7212 35.9209 16.2629 34.9365 15.0051 33.6787C13.7564 32.4209 12.7766 30.9671 12.0656 29.3174C11.3547 27.6585 10.9992 25.8812 10.9992 23.9854C10.9992 22.0895 11.3547 20.3167 12.0656 18.667C12.7766 17.0081 13.7564 15.5498 15.0051 14.292C16.2629 13.0251 17.7212 12.0407 19.3801 11.3389C21.0389 10.6279 22.8163 10.2725 24.7121 10.2725C26.5988 10.2725 28.3716 10.6279 30.0305 11.3389C31.6893 12.0407 33.1431 13.0251 34.3918 14.292C35.6496 15.5498 36.634 17.0081 37.3449 18.667C38.065 20.3167 38.425 22.0895 38.425 23.9854C38.425 25.8812 38.065 27.6585 37.3449 29.3174C36.634 30.9671 35.6496 32.4209 34.3918 33.6787C33.1431 34.9365 31.6893 35.9209 30.0305 36.6318C28.3716 37.3428 26.5988 37.6982 24.7121 37.6982ZM24.7121 36.2353C26.4074 36.2353 27.9933 35.9163 29.4699 35.2783C30.9465 34.6403 32.2453 33.7607 33.3664 32.6396C34.4966 31.5186 35.3762 30.2197 36.0051 28.7432C36.6431 27.2666 36.9621 25.6807 36.9621 23.9854C36.9621 22.29 36.6431 20.7041 36.0051 19.2275C35.3762 17.7419 34.4966 16.4385 33.3664 15.3174C32.2453 14.1963 30.9465 13.3213 29.4699 12.6924C27.9933 12.0544 26.4074 11.7354 24.7121 11.7354C23.0168 11.7354 21.4308 12.0544 19.9543 12.6924C18.4777 13.3213 17.1743 14.1963 16.0441 15.3174C14.923 16.4385 14.0435 17.7419 13.4055 19.2275C12.7766 20.7041 12.4621 22.29 12.4621 23.9854C12.4621 25.6807 12.7766 27.2666 13.4055 28.7432C14.0435 30.2197 14.923 31.5186 16.0441 32.6396C17.1743 33.7607 18.4777 34.6403 19.9543 35.2783C21.4308 35.9163 23.0168 36.2353 24.7121 36.2353Z" fill="black"/>
</svg>
